# xmcd
#
# Track frame offsets: 
#        150
#        21034
#        37400
#        53781
#        69340
#        79410
#        92437
#        103422
#        115537
#
# Disc length: 1764 seconds
#
# Revision: 0
# Processed by: cddbd v1.5.2PL0 Copyright (c) Steve Scherf et al.
# Submitted via: ExactAudioCopyFreeDBPlugin 1.0
#
DISCID=7206e209
DTITLE=Joseph - Stoned Age Man
DYEAR=1969
DGENRE=Psychedelic Rock
TTITLE0=Trick Bag
TTITLE1=I Ain't Fattenin' No More Frogs For Snakes
TTITLE2=Cold Biscuits And And Fish Heads
TTITLE3=Stone Age Man
TTITLE4=I'm Gonna Build A Mountain
TTITLE5=Mojo Gumbo
TTITLE6=The House Of The Rising Sun
TTITLE7=Gotta Get Away
TTITLE8=Come The Sun Tomorrow
EXTD=
EXTT0=
EXTT1=
EXTT2=
EXTT3=
EXTT4=
EXTT5=
EXTT6=
EXTT7=
EXTT8=
PLAYORDER=
